<svg width="453" height="279" viewBox="0 0 453 279" fill="none" xmlns="http://www.w3.org/2000/svg">
<path d="M119.717 51.4644C118.235 52.4083 117.495 54.07 117.496 56.4496V87.6041C117.496 87.6875 117.422 87.8099 117.277 87.9748C115.535 89.4577 113.621 90.6595 111.589 91.546C109.52 92.4533 107.38 93.134 105.197 93.5789C103.012 94.0255 100.804 94.3128 98.5861 94.4389C96.3825 94.5624 94.2332 94.6241 92.1383 94.6241C88.9595 94.6241 85.7454 94.5006 82.4959 94.2535C77.2557 93.889 72.1387 92.2949 67.4675 89.5716C62.7962 86.8484 58.6719 83.0551 55.3545 78.4307C52.1025 73.8814 49.589 68.7105 47.9315 63.1601C46.1833 57.3551 45.3041 51.2581 45.3305 45.1227C45.2149 38.4459 46.3993 31.8226 48.799 25.7268C50.9994 20.2682 54.2374 15.4319 58.28 11.5663C62.4129 7.67271 67.1806 4.74312 72.3106 2.9451C77.8526 0.983175 83.6284 0.00739028 89.433 0.0522611C92.7089 0.0542437 95.9822 0.259641 99.2384 0.667533C102.523 1.08018 105.755 1.53173 108.935 2.02222C110.378 2.26931 111.805 2.51577 113.215 2.76163C114.623 3.00873 116.05 3.21382 117.496 3.3769C117.555 3.36761 117.614 3.37399 117.671 3.39551C117.727 3.41703 117.778 3.45313 117.82 3.50093C117.862 3.54873 117.893 3.60691 117.912 3.67094C117.931 3.73497 117.936 3.80311 117.928 3.8699C117.782 6.82518 117.529 9.71929 117.17 12.5523C116.807 15.384 116.446 18.2367 116.087 21.1104C116.014 21.6849 115.942 22.2384 115.87 22.7709C115.797 23.3065 115.723 23.818 115.653 24.311C115.653 24.5575 115.526 24.7002 115.273 24.7428C115.223 24.7597 115.171 24.765 115.119 24.7586C115.067 24.7521 115.017 24.7339 114.971 24.7051C114.926 24.6762 114.886 24.6373 114.853 24.5906C114.821 24.544 114.798 24.4904 114.784 24.4332C114.302 21.1824 113.233 18.0804 111.643 15.3228C110.161 12.8189 108.266 10.6653 106.063 8.98109C103.798 7.26759 101.287 6.01698 98.6432 5.28572C95.8425 4.49828 92.9671 4.10557 90.082 4.11637C85.326 4.06953 80.6039 5.02979 76.1574 6.94807C71.9989 8.73841 68.1891 11.4368 64.943 14.891C61.7208 18.3692 59.1581 22.5593 57.4124 27.2039C55.5354 32.2044 54.5946 37.5942 54.65 43.0304C54.6192 49.0903 55.6503 55.0966 57.6831 60.699C59.6193 66.0903 62.4313 71.0192 65.972 75.2283C69.5171 79.4098 73.7515 82.758 78.4338 85.0819C83.3331 87.5263 88.6322 88.7642 93.9826 88.7142C96.425 88.7063 98.8593 88.3963 101.243 87.7895C103.645 87.2077 105.835 85.812 107.526 83.7865V56.0808C107.526 54.1114 106.984 52.7771 105.901 52.0779C104.731 51.3386 103.496 50.7405 102.216 50.2932C101.629 50.126 101.051 49.9205 100.484 49.6779C99.8777 49.4177 99.2963 49.0873 98.7492 48.692C98.5339 48.5289 98.4605 48.3454 98.5339 48.1379C98.5664 48.0399 98.6262 47.9568 98.7043 47.9012C98.7824 47.8456 98.8743 47.8207 98.9661 47.8302C103.299 47.8302 107.579 47.8716 111.806 47.9544C116.032 48.0384 120.312 48.2027 124.646 48.4474L124.756 49.4333C122.991 49.7971 121.289 50.483 119.717 51.4644V51.4644ZM176.765 84.1572C175.86 84.0769 174.903 83.9947 173.894 83.9107C173.313 83.8292 172.717 83.768 172.105 83.7272C171.491 83.6852 170.859 83.6642 170.21 83.6642C168.546 83.6642 166.884 83.747 165.225 83.9125L160.24 84.4036C160.141 84.4089 160.044 84.3749 159.965 84.3076C159.886 84.2403 159.831 84.1438 159.808 84.0348C159.771 83.9202 159.772 83.794 159.812 83.6805C159.852 83.567 159.927 83.4741 160.023 83.4196L164.248 81.0808C163.02 77.2212 161.738 73.4239 160.403 69.689C159.066 65.9554 157.783 62.1173 156.556 58.1749H139.761C139.399 59.2436 138.876 60.8238 138.191 62.9155C137.502 65.0084 136.833 67.1841 136.185 69.4426C135.535 71.7023 134.957 73.8365 134.452 75.8454C134.042 77.2625 133.788 78.7314 133.694 80.2191C133.65 80.7417 133.766 81.2656 134.022 81.7024C134.278 82.1392 134.659 82.4622 135.101 82.6171C135.983 82.9704 136.889 83.2389 137.811 83.4196V84.4036C136.438 84.2406 135.029 84.0966 133.584 83.9718C132.139 83.8483 130.695 83.7878 129.252 83.7902C127.806 83.7902 126.361 83.8508 124.917 83.9718C123.471 84.0954 122.026 84.2393 120.583 84.4036C120.367 84.487 120.24 84.3647 120.203 84.0348C120.167 83.7074 120.258 83.5023 120.475 83.4196C122.313 83.2314 124.069 82.4629 125.543 81.2008C127.017 79.9387 128.151 78.2333 128.818 76.2772V76.3996C130.912 70.4087 132.934 64.416 134.884 58.4214C136.836 52.4293 138.751 46.3952 140.629 40.3191C141.929 36.2149 143.194 32.1303 144.422 28.0656C145.648 24.0033 146.948 19.92 148.321 15.8158C148.348 15.709 148.405 15.6152 148.484 15.5485C148.562 15.4817 148.657 15.4457 148.755 15.4457C148.853 15.4457 148.948 15.4817 149.026 15.5485C149.104 15.6152 149.161 15.709 149.189 15.8158C149.549 16.9648 149.929 18.0928 150.327 19.1998C150.722 20.3092 151.101 21.4384 151.463 22.5874C154.426 31.7819 157.514 41.0172 160.729 50.2932C163.95 59.5878 167.622 68.6726 171.726 77.5059C172.44 79.2101 173.593 80.6274 175.032 81.5701C176.46 82.4204 178.027 82.9234 179.635 83.0471V84.033C178.686 84.1969 177.723 84.2386 176.765 84.1572V84.1572ZM148.212 28.4974C146.983 32.8513 145.81 37.1001 144.693 41.2439C143.572 45.3902 142.325 49.6798 140.953 54.1127H154.932L148.212 28.4974ZM257.831 84.2794H249.055C246.163 84.2794 243.309 84.1979 240.493 84.0348C240.061 84.0348 239.914 83.8291 240.061 83.4177C240.129 83.2603 240.183 83.0959 240.223 82.9266C240.26 82.7557 240.315 82.5903 240.386 82.4336L241.035 80.2172C241.242 79.5435 241.352 78.8365 241.361 78.123C241.361 73.4443 241.161 68.8266 240.762 64.2702C240.365 59.715 239.913 55.1387 239.409 50.5415C239.119 47.7493 238.848 45.266 238.597 43.0916C238.341 40.9171 238.142 38.3924 238 35.5174C235.255 41.5095 232.619 47.5022 230.091 53.4955C227.562 59.4889 225.034 65.5638 222.507 71.7202C221.639 73.7736 220.79 75.8047 219.959 77.8136C219.128 79.8274 218.279 81.8598 217.412 83.9107C217.386 83.9842 217.342 84.047 217.284 84.0909C217.226 84.1349 217.157 84.158 217.088 84.1572C217.005 84.1514 216.924 84.1266 216.85 84.0842C216.775 84.0419 216.709 83.9828 216.656 83.9107C213.418 78.8196 210.537 73.4472 208.039 67.8432C205.619 62.3848 203.326 56.9042 201.161 51.4014C200.003 48.5289 198.973 45.922 198.071 43.5808C197.168 41.2432 196.103 38.6784 194.874 35.8862C194.657 37.9396 194.441 39.9306 194.225 41.8592C194.008 43.789 193.791 45.6978 193.575 47.5856C192.996 52.6758 192.491 57.724 192.058 62.7302C191.624 67.7388 191.407 72.829 191.407 78.0007C191.347 78.5553 191.404 79.1183 191.573 79.6428C191.743 80.1673 192.02 80.6381 192.383 81.0159C193.12 81.604 193.921 82.0805 194.767 82.4336C195.153 82.6445 195.551 82.829 195.957 82.9859C196.463 83.1935 196.789 83.3362 196.934 83.4177C197.03 83.4725 197.105 83.5654 197.145 83.6787C197.185 83.792 197.187 83.918 197.151 84.033C197.127 84.1423 197.071 84.239 196.992 84.3066C196.913 84.3743 196.816 84.4085 196.717 84.4036C195.704 84.4036 194.711 84.3851 193.738 84.3406C192.763 84.2999 191.769 84.2381 190.758 84.1553C189.746 84.075 188.735 84.0132 187.724 83.97C186.712 83.9317 185.701 83.9119 184.691 83.9107H182.522C181.794 83.9195 181.069 84.002 180.355 84.1572C180.138 84.2406 179.993 84.1164 179.921 83.7865C179.849 83.4603 179.921 83.2546 180.139 83.1731C180.564 83.036 181 82.9534 181.441 82.9266C182.136 82.7888 182.823 82.6031 183.499 82.3706C184.195 82.0511 184.77 81.4633 185.123 80.7101C185.43 79.6726 185.631 78.5979 185.72 77.5078C185.972 75.62 186.26 73.2188 186.585 70.3043C186.912 67.391 187.273 64.0867 187.67 60.3914C188.066 56.6973 188.445 52.921 188.808 49.0626C189.167 45.2054 189.528 41.4088 189.891 37.6727C190.251 33.9378 190.575 30.5106 190.864 27.391C191.154 24.6816 191.371 22.2804 191.517 20.1875C191.66 18.0934 191.804 16.5948 191.949 15.6916C191.936 15.594 191.957 15.4946 192.008 15.4143C192.058 15.3341 192.134 15.2794 192.22 15.2617C192.308 15.2414 192.4 15.2478 192.486 15.2803C192.572 15.3128 192.649 15.3703 192.709 15.447C194.113 17.4202 195.347 19.5434 196.391 21.7869C197.98 24.9472 199.696 28.6209 201.539 32.808C203.381 36.9963 205.295 41.4292 207.281 46.1067C209.267 50.7855 211.091 55.1363 212.752 59.159C213.98 62.034 214.992 64.4969 215.787 66.5478C216.58 68.6012 217.303 70.3247 217.955 71.7183C219.11 69.0929 220.283 66.2408 221.476 63.162C222.668 60.0831 223.842 57.0253 224.998 53.9885C227.524 47.3391 230.196 40.6076 233.015 33.7939C235.593 27.4636 238.6 21.3703 242.008 15.5693C242.059 15.4969 242.126 15.4415 242.203 15.4089C242.279 15.3763 242.362 15.3676 242.442 15.384C242.587 15.4266 242.659 15.5693 242.659 15.8139C242.804 16.7998 242.93 18.1756 243.039 19.9411C243.148 21.7078 243.31 23.7396 243.526 26.0363C243.744 29.0744 244.015 32.399 244.339 36.0104C244.664 39.6229 245.007 43.317 245.368 47.0927C245.728 50.8695 246.09 54.5432 246.452 58.1138C246.811 61.6843 247.19 64.9473 247.589 67.9025C247.985 70.8591 248.365 73.3424 248.727 75.3525C248.87 76.6721 249.237 77.9474 249.81 79.1071C250.36 80.1614 251.145 81.0326 252.086 81.6331C252.916 82.0373 253.791 82.3068 254.687 82.4336C255.199 82.5999 255.726 82.7031 256.257 82.7413C256.844 82.7985 257.415 82.9874 257.937 83.2972L257.831 84.2794ZM292.575 78.0619C292.36 79.8287 292.143 81.6553 291.926 83.5419C291.926 83.7884 291.779 83.9125 291.492 83.9125L291.384 84.0348C290.937 84.2481 290.46 84.3728 289.975 84.4036C288.312 84.4036 286.633 84.3832 284.937 84.3424C283.24 84.3004 281.56 84.2794 279.899 84.2794C278.453 84.2794 277.045 84.2597 275.673 84.2202C274.299 84.1769 272.891 84.1559 271.447 84.1572C269.496 84.1572 267.528 84.1782 265.543 84.2202C263.553 84.2609 261.585 84.3221 259.638 84.4036V83.4177C260.573 83.4639 261.499 83.1846 262.291 82.6171C262.96 82.1056 263.501 81.4059 263.861 80.586C264.235 79.7156 264.474 78.7783 264.567 77.8154C264.676 76.7735 264.73 75.7252 264.729 74.6761V23.4492C264.729 21.8085 264.386 20.7416 263.702 20.2487C263.001 19.7494 262.256 19.3369 261.479 19.0181L260.016 18.4622C259.426 18.2319 258.862 17.922 258.337 17.5392C258.269 17.4713 258.218 17.3839 258.189 17.2862C258.161 17.1885 258.156 17.0839 258.175 16.9833C258.191 16.8863 258.239 16.8001 258.31 16.743C258.38 16.6859 258.468 16.6624 258.553 16.6775H289.434C289.732 16.5091 290.04 16.3648 290.355 16.2457C290.671 16.1271 290.979 15.9828 291.277 15.8139C291.637 15.6508 291.818 15.8139 291.818 16.3069C291.602 18.4418 291.331 20.4321 291.004 22.278C290.679 24.125 290.336 25.9931 289.975 27.8821C289.961 27.9388 289.938 27.9918 289.905 28.038C289.873 28.0841 289.833 28.1226 289.788 28.1512C289.743 28.1798 289.693 28.198 289.641 28.2046C289.59 28.2112 289.538 28.2061 289.488 28.1897C289.235 28.149 289.108 28.0044 289.108 27.7579C288.962 24.8854 288.096 22.997 286.509 22.0926C284.677 21.1319 282.674 20.6688 280.658 20.7398H272.096V45.9826H284.666C285.151 45.9517 285.627 45.8263 286.075 45.6119L287.808 44.8743C288.562 44.4002 289.362 44.0283 290.192 43.7661C290.554 43.603 290.735 43.7673 290.734 44.259C290.661 45.2437 290.571 46.3106 290.463 47.4596C290.355 48.6098 290.229 49.6773 290.083 50.662C289.936 51.6442 289.83 52.6745 289.757 53.7401C289.684 54.8076 289.576 55.8331 289.432 56.8165C289.442 56.9214 289.42 57.0267 289.371 57.1162C289.322 57.2057 289.249 57.2743 289.162 57.3113C289.08 57.3538 288.988 57.3649 288.901 57.3428C288.813 57.3207 288.734 57.2668 288.676 57.189C288.354 56.8513 288.112 56.4277 287.971 55.9566C287.863 55.5464 287.737 55.0955 287.593 54.6038L287.158 53.1249C287.001 52.6131 286.741 52.1498 286.399 51.7721C285.821 51.2549 285.127 50.9338 284.395 50.8454C283.42 50.6428 282.372 50.4791 281.251 50.3543C280.154 50.2326 279.052 50.1708 277.949 50.169H272.204V75.5378C273.347 77.3995 274.949 78.8349 276.809 79.6631C278.639 80.5704 280.61 81.0518 282.606 81.0789C284.919 81.1562 287.188 80.354 289.054 78.7995C290.871 77.1936 292.12 74.8998 292.575 72.3355L293.442 72.5819C293.08 74.4722 292.791 76.2989 292.575 78.0619V78.0619ZM358.646 41.1067C358.629 41.1719 358.591 41.2268 358.538 41.2594C358.486 41.2921 358.425 41.2998 358.367 41.2809C358.223 41.2587 358.15 41.1765 358.15 41.0345C358.208 40.4249 358.136 39.8087 357.941 39.2372C357.746 38.6656 357.434 38.1552 357.03 37.7487C356.113 37.0572 355.023 36.723 353.924 36.7962C353.373 36.794 352.823 36.8292 352.277 36.9017C351.758 36.9722 351.209 37.0544 350.63 37.1483C350.177 37.2499 349.72 37.321 349.26 37.3614C348.764 37.4096 348.309 37.4336 347.893 37.4336V51.2772H356.285C356.645 51.249 356.991 51.1022 357.28 50.8547C357.603 50.6199 357.895 50.3348 358.149 50.0078C358.184 49.9644 358.23 49.9344 358.281 49.9221C358.331 49.9097 358.384 49.9154 358.432 49.9386C358.48 49.9617 358.52 50.0012 358.547 50.0514C358.575 50.1016 358.587 50.1602 358.584 50.219C358.5 51.5373 358.386 52.8203 358.242 54.0682C358.098 55.316 357.922 56.5521 357.713 57.7765C357.706 57.809 357.692 57.8394 357.674 57.866C357.656 57.8926 357.633 57.9148 357.608 57.9314C357.582 57.9479 357.553 57.9585 357.524 57.9625C357.494 57.9664 357.465 57.9637 357.436 57.9544C357.289 57.9322 357.218 57.8469 357.218 57.7061C357.258 56.1518 356.915 55.0807 356.19 54.4926C355.27 53.8441 354.196 53.5359 353.115 53.6105H347.893V67.7376C347.9 68.343 348.005 68.9417 348.203 69.5037C348.403 70.1015 348.697 70.6524 349.072 71.129C349.441 71.5956 349.884 71.979 350.378 72.2594C350.88 72.5417 351.433 72.6864 351.993 72.682V73.2472H351.561C351.104 73.2472 350.669 73.2244 350.254 73.1786C349.84 73.1305 349.405 73.086 348.95 73.036C348.516 72.9924 348.081 72.9572 347.645 72.9303C347.23 72.9068 346.815 72.8951 346.401 72.8951C345.986 72.8954 345.571 72.9189 345.159 72.9655L343.914 73.1064C342.964 73.199 342.011 73.246 341.057 73.2472H340.682C340.56 73.2472 340.487 73.1657 340.465 73.0007C340.449 72.9351 340.456 72.8647 340.485 72.8049C340.514 72.7452 340.563 72.7009 340.62 72.682C341.218 72.5875 341.803 72.4095 342.362 72.152C342.732 71.982 343.046 71.6862 343.262 71.3051C343.463 70.8945 343.57 70.4332 343.573 69.9633C343.594 69.4209 343.604 68.726 343.604 67.8784V38.351C343.604 37.2675 343.418 36.596 343.045 36.3365C342.639 36.063 342.2 35.8612 341.741 35.7379C341.484 35.6237 341.225 35.5174 340.963 35.4192C340.624 35.2873 340.301 35.1093 340.001 34.8891C339.877 34.7965 339.834 34.689 339.877 34.5723C339.895 34.5158 339.929 34.4678 339.974 34.4356C340.019 34.4035 340.072 34.389 340.125 34.3943C342.736 34.5364 345.367 34.6075 348.019 34.6075H352.431C352.639 34.6075 352.855 34.6204 353.084 34.6427C353.312 34.6668 353.552 34.6779 353.8 34.6779C354.752 34.7249 355.736 34.7249 356.751 34.6779C357.673 34.6586 358.579 34.3919 359.393 33.8995C359.411 33.877 359.432 33.859 359.456 33.8466C359.48 33.8343 359.507 33.8279 359.533 33.8279C359.56 33.8279 359.586 33.8343 359.61 33.8466C359.634 33.859 359.656 33.877 359.673 33.8995C359.721 33.9386 359.756 33.9946 359.773 34.0587C359.789 34.1228 359.786 34.1914 359.765 34.2535L358.646 41.1067ZM400.581 110.306C400.536 113.021 400.183 115.717 399.531 118.329C399.502 118.443 399.44 118.544 399.356 118.616C399.272 118.687 399.17 118.726 399.065 118.726C398.96 118.726 398.857 118.687 398.773 118.616C398.689 118.544 398.628 118.443 398.598 118.329C398.312 116.421 397.697 114.595 396.788 112.958C395.996 111.615 394.938 110.502 393.698 109.709C392.391 108.89 390.97 108.33 389.497 108.053C387.878 107.738 386.238 107.583 384.596 107.589L49.4693 108.47V185.909C49.4005 189.238 50.4668 192.469 52.4453 194.926C54.3738 197.369 56.9957 198.965 59.8536 199.435C59.9072 199.452 59.9574 199.481 60.0011 199.52C60.0449 199.56 60.0814 199.608 60.1085 199.664C60.1356 199.719 60.1528 199.78 60.1592 199.843C60.1656 199.906 60.1609 199.969 60.1455 200.03C60.1047 200.34 59.9694 200.493 59.7378 200.493C57.0145 200.229 54.2728 200.008 51.5125 199.832C48.7479 199.655 45.9671 199.567 43.1699 199.567C41.1467 199.567 39.1431 199.633 37.1591 199.765C35.1772 199.898 33.1747 200.053 31.1516 200.228C30.9184 200.228 30.7814 200.076 30.7439 199.765C30.7282 199.704 30.7233 199.641 30.7295 199.578C30.7356 199.515 30.7527 199.454 30.7797 199.399C30.8067 199.343 30.8431 199.295 30.8867 199.255C30.9304 199.216 30.9805 199.187 31.0341 199.17C32.5329 198.854 33.9994 198.364 35.411 197.71C36.3539 197.276 37.1645 196.539 37.7429 195.588C38.2893 194.563 38.6098 193.403 38.6773 192.208C38.7936 190.836 38.8523 189.09 38.8534 186.969V108.603H19.6013C17.1465 108.587 14.7825 109.657 13.01 111.587C11.1847 113.446 9.73215 115.73 8.75055 118.282C8.59237 118.547 8.41789 118.66 8.2271 118.614C8.13454 118.596 8.05195 118.537 7.99707 118.451C7.94219 118.364 7.91939 118.256 7.93357 118.151C7.78682 117.365 7.70817 116.565 7.69875 115.762C7.69657 114.017 7.8928 112.279 8.28254 110.592C8.67174 108.911 9.10007 107.187 9.56754 105.419C9.80018 104.536 10.0339 103.673 10.2687 102.832C10.5003 101.994 10.6944 101.177 10.8509 100.378C11.0074 99.8503 11.239 99.7613 11.5521 100.113C13.0084 101.184 14.6321 101.927 16.335 102.302C18.1088 102.632 19.9043 102.787 21.7016 102.767L393.349 101.885C394.039 101.874 394.726 101.762 395.391 101.552C396.129 101.332 396.81 101.133 397.434 100.957C397.822 100.87 398.266 100.781 398.774 100.692C399.28 100.605 399.803 100.514 400.35 100.427C400.583 100.427 400.699 100.605 400.699 100.957V102.017C400.697 104.582 400.657 107.344 400.581 110.304V110.306Z" fill="#130A05"/>
<path d="M120.966 191.41C117.041 191.158 113.156 191.032 109.311 191.032C107.904 191.032 106.516 191.053 105.148 191.095C103.778 191.139 102.354 191.202 100.875 191.284C100.652 191.284 100.523 191.139 100.486 190.843C100.471 190.785 100.466 190.724 100.472 190.665C100.478 190.605 100.495 190.547 100.52 190.494C100.546 190.441 100.581 190.395 100.622 190.357C100.664 190.32 100.712 190.292 100.763 190.276C103.054 189.517 104.535 188.508 105.203 187.248C105.868 185.986 106.202 184.009 106.203 181.317V155.081H72.1276V181.571C72.1276 186.87 74.5323 189.772 79.3418 190.276C79.5652 190.276 79.6761 190.443 79.6761 190.78C79.6761 191.117 79.5652 191.284 79.3418 191.284H75.901C74.865 191.284 73.755 191.326 72.5711 191.41C71.7558 191.41 70.8121 191.431 69.7402 191.473C68.6672 191.516 67.7247 191.537 66.9126 191.536H64.1355C63.1734 191.536 62.2118 191.494 61.2508 191.41C60.954 191.41 60.6018 191.392 60.1957 191.347C59.8456 191.308 59.4941 191.287 59.1423 191.284C58.9172 191.284 58.7884 191.138 58.7542 190.843C58.739 190.785 58.7341 190.724 58.7398 190.665C58.7455 190.605 58.7616 190.547 58.7873 190.494C58.813 190.441 58.8476 190.394 58.8892 190.357C58.9309 190.32 58.9786 190.292 59.0298 190.276C60.0082 190.083 60.9729 189.808 61.9161 189.455C62.5675 189.23 63.146 188.791 63.5794 188.195C63.9733 187.582 64.2221 186.865 64.3018 186.112C64.4264 185.024 64.482 183.928 64.4682 182.831V129.093C64.5052 128.265 64.3444 127.441 64.0028 126.708C63.6611 125.976 63.1514 125.361 62.5276 124.931C61.2787 124.024 59.8433 123.502 58.3628 123.417V122.409C61.4709 122.661 64.5421 122.788 67.5763 122.789C68.8341 122.789 70.0919 122.767 71.3497 122.724C72.6065 122.684 73.8648 122.663 75.1248 122.661H77.4567C77.6769 122.661 77.7878 122.831 77.7878 123.167C77.7878 123.504 77.6769 123.671 77.4567 123.671C76.1511 123.661 74.8805 124.15 73.8496 125.061C73.3213 125.514 72.8983 126.107 72.6175 126.788C72.3368 127.469 72.2066 128.218 72.2385 128.969V150.919H106.206V129.473C106.206 127.455 105.743 126.172 104.818 125.626C103.736 125.012 102.602 124.526 101.433 124.175C101.153 124.097 100.875 124.012 100.598 123.921C100.34 123.838 100.06 123.754 99.7664 123.669C99.7153 123.653 99.6674 123.625 99.6258 123.588C99.5841 123.551 99.5493 123.504 99.5235 123.451C99.4977 123.399 99.4814 123.341 99.4755 123.281C99.4696 123.221 99.4743 123.16 99.4892 123.102C99.5261 122.808 99.6555 122.661 99.8773 122.661C103.429 122.913 106.87 123.039 110.2 123.039C111.679 123.039 113.178 123.018 114.696 122.976C116.213 122.934 117.712 122.871 119.191 122.787C119.415 122.787 119.542 122.935 119.583 123.228C119.597 123.286 119.602 123.347 119.596 123.407C119.59 123.467 119.573 123.525 119.547 123.578C119.521 123.63 119.486 123.677 119.445 123.714C119.403 123.751 119.355 123.779 119.304 123.795C117.946 124.028 116.633 124.518 115.418 125.244C114.455 125.877 113.974 127.244 113.975 129.346V181.065C113.975 183.925 114.529 186.07 115.638 187.498C116.75 188.931 118.564 189.898 121.08 190.4L120.966 191.41ZM180.498 192.357C179.172 192.729 177.811 192.92 176.445 192.924C174.383 192.962 172.338 192.488 170.453 191.536C168.713 190.641 167.104 189.449 165.68 188.004C164.226 186.516 162.905 184.868 161.738 183.083C160.52 181.235 159.356 179.344 158.243 177.409C157.206 175.642 156.115 173.897 154.969 172.174C153.846 170.483 152.582 168.919 151.194 167.505C149.866 166.15 148.37 165.024 146.754 164.164C145.063 163.299 143.226 162.869 141.372 162.902H139.595C139.033 162.908 138.474 162.993 137.93 163.154V181.065C137.879 183.347 138.57 185.571 139.87 187.311C140.517 188.168 141.305 188.871 142.192 189.38C143.078 189.889 144.044 190.193 145.035 190.276V191.284C143.33 191.117 141.646 190.97 139.983 190.843C138.32 190.716 136.636 190.653 134.933 190.654C133.229 190.654 131.582 190.738 129.992 190.906C128.401 191.076 126.755 191.286 125.054 191.536C124.83 191.621 124.666 191.518 124.555 191.221C124.496 191.104 124.48 190.965 124.511 190.835C124.542 190.705 124.617 190.594 124.719 190.526C126.285 189.675 127.625 188.37 128.605 186.742C129.611 185.164 130.155 183.266 130.159 181.317V130.987C130.168 129.076 129.51 127.239 128.328 125.878C127.146 124.433 125.624 123.404 123.943 122.913C123.892 122.897 123.844 122.87 123.802 122.832C123.76 122.795 123.725 122.748 123.699 122.695C123.673 122.642 123.657 122.584 123.651 122.523C123.646 122.463 123.651 122.402 123.666 122.344C123.702 122.051 123.834 121.903 124.054 121.903H145.922C148.204 121.902 150.478 122.219 152.693 122.848C154.796 123.421 156.79 124.426 158.576 125.813C160.295 127.184 161.703 129 162.682 131.112C163.765 133.531 164.299 136.219 164.236 138.932C164.229 142.997 163.209 146.977 161.296 150.411C159.468 153.841 157.247 156.981 154.692 159.748C155.65 160.965 156.539 162.25 157.355 163.595C158.315 165.152 159.35 166.77 160.461 168.45C162.089 170.973 163.81 173.559 165.624 176.208C167.365 178.767 169.276 181.171 171.34 183.399C173.182 185.419 175.276 187.12 177.556 188.445C179.568 189.638 181.854 190.101 184.105 189.77L184.439 190.78C183.175 191.455 181.855 191.983 180.498 192.355V192.357ZM155.522 137.04C154.994 134.916 154.149 132.911 153.024 131.112C151.928 129.361 150.532 127.881 148.919 126.76C147.209 125.6 145.247 125.011 143.256 125.059C142.365 125.059 141.476 125.122 140.593 125.246C139.71 125.372 138.849 125.649 138.039 126.067V157.477C139.251 157.724 140.473 157.893 141.702 157.982C142.884 158.067 144.106 158.109 145.366 158.108C149.508 158.108 152.375 156.825 153.966 154.26C155.558 151.697 156.353 148.143 156.352 143.601C156.348 141.38 156.068 139.171 155.52 137.04H155.522ZM236.874 172.3C235.196 176.37 232.839 180.033 229.936 183.085C227.011 186.141 223.603 188.538 219.892 190.15C216.051 191.838 211.966 192.694 207.848 192.672C204.098 192.601 200.407 191.611 197.025 189.77C193.292 187.839 189.831 185.288 186.758 182.201C183.702 179.164 181.097 175.586 179.043 171.606C177.094 167.997 176.039 163.856 175.99 159.622C175.91 154.294 176.413 148.976 177.487 143.79C178.305 139.667 179.96 135.819 182.322 132.555C184.684 129.291 187.686 126.702 191.088 124.994C195.344 122.785 199.815 121.155 204.407 120.137L205.849 120.011C210.353 119.549 214.889 120.351 219.057 122.344C223.067 124.274 226.692 127.106 229.714 130.669C232.798 134.33 235.23 138.635 236.876 143.345C238.615 148.234 239.501 153.462 239.484 158.736C239.519 163.422 238.628 168.058 236.874 172.3ZM206.742 124.181C205.818 124.197 204.896 124.266 203.978 124.388V188.072C204.89 188.294 205.813 188.448 206.742 188.536V124.181ZM213.356 188.204C215.261 187.833 217.108 187.149 218.839 186.175C221.647 184.604 224.125 182.367 226.107 179.614C228.11 176.793 229.618 173.56 230.549 170.092C231.56 166.375 232.064 162.504 232.044 158.614C232.036 154.426 231.495 150.261 230.438 146.249C229.422 142.264 227.807 138.508 225.665 135.148C223.594 131.909 220.946 129.202 217.895 127.201C216.47 126.267 214.944 125.546 213.356 125.055V188.204ZM211.432 124.568C210.517 124.387 209.594 124.269 208.667 124.216V188.634H208.846C209.733 188.634 210.596 188.589 211.434 188.499L211.432 124.568ZM202.07 124.731C197.293 125.795 192.983 128.694 189.864 132.943C187.831 135.748 186.27 138.954 185.258 142.401C184.17 146.079 183.626 149.937 183.648 153.817C183.652 158.052 184.213 162.262 185.313 166.308C186.378 170.326 188.05 174.104 190.254 177.47C192.39 180.746 195.09 183.494 198.191 185.545C199.417 186.357 200.719 187.013 202.072 187.5L202.07 124.731ZM305.328 123.352C305.292 123.311 305.198 123.334 305.051 123.417C304.015 123.754 302.924 124.175 301.778 124.679C301.273 124.841 300.83 125.19 300.519 125.67C300.207 126.149 300.045 126.733 300.058 127.329L300.169 157.731V162.902C300.169 167.78 300.095 172.594 299.947 177.346C299.797 182.098 299.538 186.87 299.171 191.664C299.163 191.759 299.134 191.85 299.085 191.928C299.035 192.006 298.969 192.067 298.892 192.105C298.817 192.168 298.723 192.197 298.631 192.185C298.538 192.174 298.452 192.122 298.391 192.042C294.839 188.594 291.288 184.872 287.736 180.878C284.184 176.885 280.688 172.807 277.246 168.643C273.805 164.48 270.42 160.275 267.09 156.028C263.76 151.782 260.578 147.64 257.544 143.602C256.509 142.341 255.585 141.143 254.771 140.007C253.954 138.87 253.028 137.672 251.994 136.412C251.777 138.59 251.666 140.78 251.662 142.972C251.662 146.168 251.699 149.364 251.773 152.559C251.847 155.755 251.957 158.951 252.105 162.146C252.252 165.342 252.363 168.538 252.44 171.732C252.511 174.929 252.548 178.166 252.55 181.445C252.524 182.613 252.635 183.78 252.883 184.914C253.049 185.659 253.331 186.364 253.715 186.996C254.023 187.479 254.447 187.851 254.936 188.069C255.419 188.281 255.922 188.429 256.435 188.51C257.026 188.679 257.619 188.868 258.212 189.077C258.971 189.391 259.682 189.838 260.319 190.402C260.388 190.472 260.44 190.561 260.469 190.661C260.498 190.761 260.504 190.868 260.485 190.971C260.469 191.071 260.42 191.16 260.347 191.218C260.274 191.277 260.184 191.301 260.096 191.286C259.356 191.202 258.635 191.117 257.932 191.032L255.768 190.78C254.731 190.612 253.676 190.485 252.604 190.4C251.529 190.317 250.475 190.276 249.441 190.276C248.066 190.28 246.694 190.385 245.331 190.591C243.927 190.801 242.521 191.032 241.114 191.284C241.067 191.307 241.016 191.318 240.965 191.317C240.914 191.317 240.864 191.304 240.817 191.28C240.77 191.257 240.728 191.223 240.694 191.18C240.659 191.137 240.632 191.087 240.615 191.032C240.559 190.936 240.534 190.821 240.544 190.706C240.554 190.591 240.599 190.484 240.671 190.402C241.174 189.89 241.712 189.426 242.282 189.014C242.761 188.68 243.224 188.384 243.668 188.13C244.571 187.612 245.381 186.907 246.055 186.051C246.85 184.835 247.225 183.332 247.11 181.823V122.787L247.997 120.767C248.068 120.602 248.185 120.469 248.33 120.389C248.358 120.367 248.39 120.352 248.424 120.347C248.458 120.341 248.493 120.345 248.525 120.357C248.557 120.369 248.587 120.39 248.611 120.417C248.635 120.445 248.654 120.478 248.664 120.515C256.729 130.021 264.536 139.376 272.086 148.582C279.633 157.79 287.292 167.314 295.063 177.155V176.777C295.063 172.91 295.044 169.084 295.006 165.298C294.968 161.514 294.913 157.646 294.841 153.693C294.765 150.078 294.691 146.23 294.618 142.149C294.543 138.072 294.506 134.225 294.508 130.608C294.538 129.435 294.406 128.265 294.117 127.138C293.922 126.375 293.559 125.68 293.064 125.118C292.654 124.68 292.16 124.357 291.62 124.173C291.11 124.008 290.591 123.882 290.066 123.795C289.526 123.721 288.988 123.616 288.457 123.48C287.971 123.352 287.528 123.067 287.18 122.661C287.108 122.579 287.064 122.471 287.054 122.356C287.044 122.241 287.07 122.125 287.126 122.029C287.239 121.779 287.366 121.695 287.514 121.779C289.096 122.02 290.69 122.146 292.286 122.155H296.95C297.912 122.155 298.89 122.137 299.89 122.092C300.908 122.052 301.927 122.073 302.942 122.155C303.313 122.155 303.72 122.179 304.164 122.22C304.607 122.263 305.013 122.283 305.387 122.283L305.607 123.293C305.459 123.376 305.367 123.399 305.33 123.354L305.328 123.352ZM347.356 184.662C347.134 186.471 346.912 188.342 346.691 190.276C346.691 190.528 346.539 190.654 346.246 190.654L346.135 190.78C345.676 190.999 345.188 191.126 344.692 191.158C342.989 191.158 341.269 191.137 339.531 191.095C337.789 191.053 336.069 191.032 334.369 191.032C332.888 191.032 331.445 191.012 330.042 190.971C328.634 190.928 327.191 190.906 325.712 190.906C323.713 190.906 321.696 190.928 319.662 190.971C317.626 191.013 315.609 191.075 313.612 191.158V190.15C314.571 190.197 315.52 189.911 316.332 189.329C317.018 188.805 317.572 188.088 317.942 187.248C318.324 186.356 318.568 185.395 318.662 184.409C318.774 183.341 318.83 182.268 318.829 181.193V128.715C318.829 127.035 318.477 125.942 317.774 125.437C317.058 124.924 316.295 124.501 315.499 124.175L314 123.606C313.396 123.37 312.818 123.053 312.28 122.661C312.21 122.591 312.158 122.502 312.129 122.402C312.101 122.302 312.096 122.195 312.115 122.092C312.151 121.884 312.28 121.777 312.503 121.777H344.137C344.442 121.605 344.757 121.458 345.08 121.336C345.403 121.215 345.718 121.067 346.022 120.893C346.393 120.726 346.58 120.893 346.58 121.399C346.355 123.586 346.077 125.625 345.745 127.516C345.414 129.408 345.063 131.321 344.692 133.256C344.677 133.314 344.653 133.368 344.62 133.415C344.586 133.463 344.545 133.502 344.499 133.531C344.452 133.561 344.401 133.579 344.349 133.586C344.296 133.593 344.242 133.588 344.191 133.571C343.934 133.53 343.803 133.382 343.803 133.13C343.654 130.188 342.766 128.253 341.14 127.325C339.264 126.342 337.211 125.867 335.146 125.939H326.377V151.799H339.252C339.748 151.768 340.237 151.64 340.695 151.421L342.471 150.663C343.243 150.178 344.063 149.797 344.914 149.529C345.283 149.361 345.468 149.529 345.468 150.033C345.394 151.042 345.302 152.136 345.191 153.313C345.079 154.491 344.948 155.584 344.799 156.593C344.652 157.6 344.541 158.651 344.468 159.746C344.394 160.839 344.284 161.891 344.136 162.9C344.142 163.005 344.119 163.11 344.07 163.2C344.022 163.29 343.95 163.361 343.865 163.402C343.779 163.443 343.685 163.454 343.594 163.432C343.503 163.41 343.421 163.356 343.358 163.278C343.029 162.933 342.781 162.5 342.637 162.018C342.513 161.553 342.383 161.089 342.249 160.628C342.099 160.126 341.952 159.62 341.805 159.116C341.645 158.591 341.378 158.116 341.028 157.73C340.435 157.199 339.723 156.871 338.973 156.783C337.975 156.574 336.902 156.406 335.756 156.278C334.63 156.154 333.501 156.091 332.37 156.089H326.485V182.075C327.657 183.982 329.299 185.453 331.204 186.301C333.078 187.23 335.096 187.723 337.14 187.752C339.509 187.832 341.834 187.011 343.746 185.419C345.608 183.773 346.888 181.423 347.353 178.795L348.242 179.047C347.872 180.983 347.577 182.855 347.356 184.662ZM388.3 180.939C386.929 183.382 385.157 185.502 383.082 187.185C380.945 188.926 378.587 190.288 376.089 191.221C373.751 192.147 371.296 192.637 368.82 192.672C367.644 192.664 366.472 192.516 365.323 192.229C364.15 191.957 363.025 191.468 361.992 190.78C361.018 190.136 360.183 189.252 359.549 188.193C358.888 187.008 358.56 185.622 358.608 184.22C358.608 183.202 358.701 182.187 358.885 181.191C359.068 180.183 359.234 179.216 359.384 178.289L359.939 175.263C359.939 175.011 360.086 174.885 360.384 174.885C360.678 174.885 360.828 175.011 360.828 175.263V177.155C360.797 178.783 361.141 180.391 361.826 181.821C362.477 183.15 363.343 184.327 364.379 185.291C365.441 186.275 366.668 187.005 367.985 187.437C369.336 187.896 370.739 188.129 372.15 188.13C373.544 188.118 374.929 187.863 376.256 187.374C377.633 186.886 378.928 186.14 380.088 185.167C381.225 184.211 382.186 183.011 382.917 181.634C383.656 180.246 384.04 178.651 384.026 177.029C384.017 175.386 383.675 173.768 383.028 172.3C382.291 170.618 381.398 169.032 380.362 167.568C379.187 165.889 377.927 164.289 376.588 162.776C375.183 161.178 373.74 159.58 372.26 157.982C370.706 156.3 369.151 154.597 367.597 152.872C366.107 151.232 364.734 149.461 363.491 147.574C362.359 145.868 361.391 144.029 360.604 142.088C359.878 140.309 359.5 138.373 359.495 136.412C359.439 133.751 360.183 131.148 361.604 129.032C363.02 126.961 364.797 125.244 366.822 123.986C368.947 122.659 371.226 121.682 373.593 121.084C375.812 120.483 378.083 120.166 380.363 120.139C383.104 120.104 385.835 120.529 388.466 121.399C388.688 121.569 388.801 121.736 388.801 121.903C388.503 126.025 388.059 130.272 387.468 134.644C387.44 134.753 387.382 134.849 387.302 134.917C387.222 134.985 387.124 135.022 387.024 135.022C386.924 135.022 386.827 134.985 386.747 134.917C386.666 134.849 386.608 134.753 386.58 134.644C386.046 131.831 384.879 129.223 383.193 127.075C382.362 126.032 381.34 125.209 380.199 124.664C379.058 124.119 377.825 123.866 376.588 123.921C375.292 123.879 374.002 124.131 372.793 124.661C371.583 125.192 370.479 125.991 369.544 127.012C368.612 128.027 367.878 129.253 367.39 130.611C366.902 131.969 366.67 133.428 366.711 134.894C366.698 136.514 367.022 138.114 367.655 139.564C368.32 141.058 369.139 142.455 370.097 143.727C371.167 145.154 372.336 146.482 373.593 147.698C374.926 149.004 376.295 150.329 377.701 151.673C379.255 153.104 380.791 154.597 382.307 156.152C383.78 157.656 385.135 159.301 386.358 161.071C387.52 162.754 388.49 164.598 389.244 166.558C389.993 168.551 390.37 170.698 390.353 172.865C390.374 175.726 389.66 178.532 388.298 180.939H388.3ZM337.652 62.9C336.721 65.158 335.414 67.19 333.804 68.8841C332.18 70.578 330.289 71.9073 328.23 72.8018C326.099 73.7387 323.832 74.2139 321.547 74.2028C319.467 74.1641 317.419 73.6147 315.543 72.5923C313.471 71.5216 311.552 70.1063 309.847 68.3929C308.151 66.7077 306.706 64.7228 305.566 62.5145C304.485 60.5124 303.9 58.2158 303.872 55.867C303.828 52.911 304.108 49.9603 304.705 47.0827C305.158 44.7954 306.076 42.6606 307.386 40.8496C308.696 39.0386 310.362 37.6018 312.249 36.6546C314.61 35.4286 317.091 34.5241 319.639 33.96L320.44 33.8896C322.939 33.634 325.455 34.0782 327.768 35.1832C329.993 36.2542 332.004 37.8258 333.68 39.8032C335.389 41.8356 336.738 44.2235 337.652 46.8363C338.617 49.5486 339.108 52.4484 339.098 55.374C339.12 57.9738 338.626 60.5456 337.652 62.8981V62.9ZM320.936 36.2024C320.423 36.2123 319.912 36.2512 319.403 36.3192V71.6509C319.908 71.7736 320.42 71.8597 320.936 71.9085V36.2024ZM324.605 71.7232C325.661 71.5175 326.686 71.1385 327.646 70.5983C329.204 69.7271 330.579 68.4859 331.679 66.9586C332.789 65.3929 333.626 63.6 334.143 61.6769C334.704 59.6137 334.985 57.465 334.974 55.3054C334.969 52.9827 334.667 50.6731 334.079 48.4485C333.517 46.2371 332.622 44.1529 331.434 42.2884C330.286 40.4904 328.816 38.9875 327.123 37.8777C326.332 37.3605 325.485 36.9606 324.605 36.688V71.7232ZM323.537 36.4174C323.03 36.3177 322.518 36.2521 322.004 36.221V71.9622H322.102C322.594 71.9622 323.072 71.9382 323.537 71.8882V36.4174ZM318.341 36.51C315.693 37.1019 313.303 38.7101 311.574 41.0653C310.444 42.6202 309.577 44.3988 309.017 46.3118C308.412 48.3523 308.11 50.4929 308.123 52.6461C308.125 54.9947 308.437 57.3298 309.048 59.5734C309.637 61.8041 310.564 63.9007 311.787 65.7688C312.972 67.5867 314.47 69.1108 316.19 70.248C316.87 70.6993 317.592 71.0635 318.343 71.334L318.341 36.51ZM393.544 124.627V128.326H392.925V124.627H391.749V124.058H394.72V124.627H393.544ZM398.998 128.326V124.762H398.978L397.748 128.326H397.357L396.124 124.762H396.108V128.326H395.487V124.058H396.444L397.566 127.301L398.668 124.058H399.617V128.326H398.998Z" fill="#130A05"/>
<path d="M37.2559 228.879H2.00195L0.12207 228L2.00195 237.131C2.06706 236.219 2.32747 235.316 2.7832 234.421C3.72721 232.598 5.20833 231.687 7.22656 231.687H16.6504L16.6748 232.272C16.6911 241.729 16.7074 250.355 16.7236 258.151V273.386C16.6097 274.737 15.8691 275.909 14.502 276.901C13.8021 277.406 13.1185 277.772 12.4512 278H26.7822C26.1149 277.772 25.4395 277.406 24.7559 276.901C23.3724 275.909 22.6318 274.737 22.5342 273.386V258.151C22.5505 250.355 22.5667 241.729 22.583 232.272V231.687H32.0312C34.0495 231.687 35.5225 232.598 36.4502 234.421C36.9222 235.316 37.1908 236.219 37.2559 237.131L39.1357 228L37.2559 228.879ZM86.4502 232.614C86.5479 231.263 87.2884 230.091 88.6719 229.099C89.3555 228.594 90.0309 228.228 90.6982 228H76.3672C77.0345 228.228 77.7181 228.594 78.418 229.099C79.7852 230.091 80.5176 231.263 80.6152 232.614V248.85H53.125V232.614C53.2227 231.263 53.9551 230.091 55.3223 229.099C56.0221 228.594 56.7057 228.228 57.373 228H43.042C43.7093 228.228 44.3848 228.594 45.0684 229.099C46.4518 230.091 47.1924 231.263 47.29 232.614V273.386C47.1924 274.737 46.4518 275.909 45.0684 276.901C44.3848 277.406 43.7093 277.772 43.042 278H57.373C56.7057 277.772 56.0221 277.406 55.3223 276.901C53.9551 275.909 53.2227 274.737 53.125 273.386V252.316H80.6152V273.386C80.5176 274.737 79.7852 275.909 78.418 276.901C77.7181 277.406 77.0345 277.772 76.3672 278H90.6982C90.0309 277.772 89.3555 277.406 88.6719 276.901C87.2884 275.909 86.5479 274.737 86.4502 273.386V232.614ZM119.287 228.879L121.167 228L119.287 237.131C119.222 236.219 118.953 235.316 118.481 234.421C117.554 232.598 116.081 231.687 114.062 231.687H104.565V250.388H115.015C117.033 250.339 118.693 249.785 119.995 248.728L118.774 258.518C118.742 257.622 118.457 256.735 117.92 255.856C116.846 254.099 115.055 253.22 112.549 253.22H104.565V271.774C105.103 272.474 105.868 273.174 106.86 273.874C108.862 275.274 111.019 275.974 113.33 275.974C115.658 275.974 117.83 274.875 119.849 272.678C120.858 271.571 121.631 270.472 122.168 269.382L121.167 278H94.5068C95.2067 277.756 95.9147 277.373 96.6309 276.853C98.0632 275.778 98.7793 274.517 98.7793 273.068C98.7793 270.757 98.7549 257.159 98.7061 232.272C97.9736 230.775 96.2809 229.644 93.6279 228.879H119.287ZM177.368 276.999L193.97 247.019L199.707 271.823V273.435C199.609 274.769 198.877 275.933 197.51 276.926C196.826 277.414 196.159 277.772 195.508 278H209.668C209.017 277.772 208.35 277.414 207.666 276.926C206.299 275.933 205.566 274.769 205.469 273.435L198.022 228.586L177.295 268.649L157.178 228L151.44 272.849C151.343 274.2 150.61 275.363 149.243 276.34C148.576 276.844 147.909 277.211 147.241 277.438H161.426C160.758 277.211 160.083 276.844 159.399 276.34C158.049 275.363 157.316 274.2 157.202 272.849V271.262L160.645 245.871L177.124 276.853L177.295 277.023H177.319V277.048L177.368 276.999ZM230.078 255.979L236.304 239.133L242.334 256.027L230.078 255.979ZM261.475 278C260.824 277.854 260.099 277.569 259.302 277.146C257.707 276.299 256.551 275.176 255.835 273.776C254.679 271.547 248.291 256.288 236.67 228L219.531 273.41C219.32 274.061 218.896 274.745 218.262 275.461C217.008 276.877 215.324 277.723 213.208 278H227.856C227.222 277.854 226.587 277.618 225.952 277.292C224.666 276.608 224.023 275.786 224.023 274.826L229.297 259.03H243.091L249.512 275.607C247.721 276.112 246.444 276.91 245.679 278H261.475ZM283.569 275.119C280.347 275.249 277.84 274.493 276.05 272.849V233.786C278.719 231.605 282.121 230.515 286.255 230.515C292.733 230.515 297.835 232.403 301.562 236.179C305.355 239.987 307.251 245.236 307.251 251.926C307.251 258.355 304.655 263.905 299.463 268.576C294.629 272.938 289.331 275.119 283.569 275.119ZM265.356 228C267.716 228.602 269.246 229.383 269.946 230.344C270.304 230.816 270.418 231.239 270.288 231.613V274.899C270.125 275.746 269.312 276.503 267.847 277.17L265.356 278H285.229C293.172 278 299.577 275.941 304.443 271.823C309.88 267.201 312.598 260.536 312.598 251.828C312.793 247.857 311.865 243.885 309.814 239.914C305.697 231.971 298.022 228 286.792 228H265.356ZM322.388 231.467C322.42 231.434 322.453 231.385 322.485 231.32L322.314 272.995C322.314 270.635 322.339 256.792 322.388 231.467ZM331.421 275.925C329.045 275.925 326.847 275.217 324.829 273.801C323.804 273.085 323.022 272.368 322.485 271.652V231.32C323.413 229.823 325.106 228.716 327.563 228H311.353C314.054 228.781 315.771 229.937 316.504 231.467C316.553 256.792 316.577 270.635 316.577 272.995C316.577 274.46 315.853 275.738 314.404 276.828C313.688 277.365 312.964 277.756 312.231 278H339.38L340.405 269.235C339.852 270.342 339.062 271.457 338.037 272.58C335.986 274.81 333.781 275.925 331.421 275.925ZM353.564 232.614C353.662 231.263 354.395 230.091 355.762 229.099C356.462 228.594 357.145 228.228 357.812 228H343.481C344.149 228.228 344.824 228.594 345.508 229.099C346.891 230.091 347.632 231.263 347.729 232.614V273.386C347.632 274.737 346.891 275.909 345.508 276.901C344.824 277.406 344.149 277.772 343.481 278H357.812C357.145 277.772 356.462 277.406 355.762 276.901C354.395 275.909 353.662 274.737 353.564 273.386V232.614ZM377.808 275.729C375.317 275.729 373.893 275.664 373.535 275.534C372.607 275.192 372.144 274.151 372.144 272.409C372.144 269.821 372.078 263.295 371.948 252.829H380.884C382.007 252.878 383.138 253.317 384.277 254.147C386.556 255.808 387.695 258.615 387.695 262.57C387.695 266.883 386.532 270.269 384.204 272.727C382.3 274.729 380.168 275.729 377.808 275.729ZM372.144 233.591C372.144 231.849 372.607 230.808 373.535 230.466C373.893 230.336 375.317 230.271 377.808 230.271C380.216 230.271 382.153 230.979 383.618 232.395C385.571 234.299 386.548 237.391 386.548 241.672C386.548 244.016 385.604 245.969 383.716 247.531C382.772 248.312 381.828 248.866 380.884 249.191H371.948C372.078 241.379 372.144 236.179 372.144 233.591ZM384.668 251.169C384.635 251.12 384.57 251.063 384.473 250.998C384.57 250.949 384.635 250.9 384.668 250.852C387.842 248.426 389.787 244.341 390.503 238.596C390.503 234.071 388.33 231.003 383.984 229.392C381.641 228.529 378.133 228.065 373.462 228H361.792C362.004 228.065 362.256 228.171 362.549 228.317L361.792 228C362.459 228.277 363.135 228.692 363.818 229.245C365.186 230.352 365.918 231.573 366.016 232.907V273.093C365.918 274.427 365.186 275.648 363.818 276.755C363.135 277.308 362.459 277.723 361.792 278L362.549 277.683C362.256 277.829 362.004 277.935 361.792 278H375.415C379.761 278.065 383.333 277.398 386.133 275.998C390.202 273.947 392.236 270.497 392.236 265.646C392.35 264.475 392.122 262.985 391.553 261.179C390.397 257.582 388.102 254.245 384.668 251.169ZM396.655 265.573C395.874 269.089 395.622 272.035 395.898 274.411C396.289 275.013 396.924 275.616 397.803 276.218C399.544 277.406 401.595 278 403.955 278C407.65 278 411.182 276.893 414.551 274.68C418.766 271.896 420.874 268.186 420.874 263.547C420.874 260.617 419.637 257.72 417.163 254.855C416.007 253.505 413.688 251.405 410.205 248.557C404.508 243.869 401.66 239.898 401.66 236.643C401.66 234.673 402.352 233.143 403.735 232.053C405.184 230.946 407.275 230.393 410.01 230.393C412.5 230.393 414.502 231.426 416.016 233.493C417.204 235.153 417.798 236.838 417.798 238.547L419.336 229.904C419.157 229.579 418.62 229.261 417.725 228.952C415.951 228.317 413.322 228 409.839 228C405.835 228 402.572 229.107 400.049 231.32C397.721 233.371 396.558 235.845 396.558 238.742C396.558 241.232 397.477 243.682 399.316 246.091C400.537 247.718 402.824 250.021 406.177 253C409.611 256.06 411.947 258.363 413.184 259.909C415.104 262.334 416.064 264.67 416.064 266.916C416.064 269.195 414.868 271.132 412.476 272.727C410.409 274.11 408.341 274.802 406.274 274.802C403.979 274.802 401.945 274.167 400.171 272.897C397.827 271.221 396.655 268.78 396.655 265.573Z" fill="#AF2C24"/>
</svg>
